# xmcd CD database file generated by OrangeCD 6.1
#
# Track frame offsets:
#	150
#	22622
#	47787
#	72349
#	101035
#	121081
#	141321
#	158018
#	174839
#	192930
#
# Disc length: 2778 seconds
#
# Revision: 0
# Processed by: cddbd v1.5.2PL0 Copyright (c) Steve Scherf et al.
# Submitted via: OrangeCD 6.1
#
DISCID=7b0ad80a
DTITLE=Odyssey - Best Of
DYEAR=2007
DGENRE=Soul
TTITLE0=Use It Up And Wear It Out
TTITLE1=Native New Yorker
TTITLE2=Going Back To My Roots
TTITLE3=Inside Out
TTITLE4=Lucker Star
TTITLE5=If You're Looking For A Way Out
TTITLE6=You Keep Me Dancin'
TTITLE7=Pride
TTITLE8=I Dare Ya
TTITLE9=Ever Lovin' Sam
EXTD=
EXTT0=
EXTT1=
EXTT2=
EXTT3=
EXTT4=
EXTT5=
EXTT6=
EXTT7=
EXTT8=
EXTT9=
PLAYORDER=
